<svg xmlns="http://www.w3.org/2000/svg" width="342.183" height="111.633" viewBox="0 0 342.183 111.633">
  <g id="Group_1854" data-name="Group 1854" transform="translate(-42.909 -360.367)">
    <text id="DERAKHSHAN" transform="translate(53 462)" fill="#f3ae23" font-size="42" font-family="SitkaSmall-Bold, Sitka Small" font-weight="700"><tspan x="0" y="0">DERAKHSHAN</tspan></text>
    <path id="Path_3388" data-name="Path 3388" d="M9461.694,1765.768s-3.7-7.965-2.938-16.453c.765-8.543,7.182-18.994,7.639-24.092.447-5,63.021-35.11,115.172-35.844s93.43,32.906,93.43,32.906,64.94,2.326,96.394,14.6,29.42,34.5,29.42,34.5-.869-22.325-33.958-32.9-98.4-9.388-98.4-9.388-40.625,2.586-71.011,0-50.534-10.344-50.534-10.344,27.951,4.676,54.386,5.557a389.891,389.891,0,0,0,51.353-2.033s-23.937-15.994-53.225-19.632-63.923,5.082-63.923,5.082,33.566-13.266,63.923-9.629,57.5,24.178,57.5,24.178h9.094s-39.2-29.654-88.658-27.949-109.193,34.769-109.193,34.769-4.855,9.611-6.474,18.777A56.575,56.575,0,0,0,9461.694,1765.768Z" transform="translate(-9415.744 -1329)" fill="#f3ae23"/>
  </g>
</svg>
